<svg id="visual" viewBox="0 0 1380 720" width="1380" height="720" xmlns="http://www.w3.org/2000/svg" xmlns:xlink="http://www.w3.org/1999/xlink" version="1.1"><path d="M0 217L38.3 219.3C76.7 221.7 153.3 226.3 230 228.7C306.7 231 383.3 231 460 226.3C536.7 221.7 613.3 212.3 690 210C766.7 207.7 843.3 212.3 920 209.8C996.7 207.3 1073.3 197.7 1150 195.3C1226.7 193 1303.3 198 1341.7 200.5L1380 203L1380 0L1341.7 0C1303.3 0 1226.7 0 1150 0C1073.3 0 996.7 0 920 0C843.3 0 766.7 0 690 0C613.3 0 536.7 0 460 0C383.3 0 306.7 0 230 0C153.3 0 76.7 0 38.3 0L0 0Z" fill="#2c5084"></path><path d="M0 339L38.3 341.5C76.7 344 153.3 349 230 352.7C306.7 356.3 383.3 358.7 460 353.8C536.7 349 613.3 337 690 334.7C766.7 332.3 843.3 339.7 920 339.7C996.7 339.7 1073.3 332.3 1150 328.7C1226.7 325 1303.3 325 1341.7 325L1380 325L1380 201L1341.7 198.5C1303.3 196 1226.7 191 1150 193.3C1073.3 195.7 996.7 205.3 920 207.8C843.3 210.3 766.7 205.7 690 208C613.3 210.3 536.7 219.7 460 224.3C383.3 229 306.7 229 230 226.7C153.3 224.3 76.7 219.7 38.3 217.3L0 215Z" fill="#345e9c"></path><path d="M0 419L38.3 422.5C76.7 426 153.3 433 230 437.7C306.7 442.3 383.3 444.7 460 439.8C536.7 435 613.3 423 690 420.7C766.7 418.3 843.3 425.7 920 425.7C996.7 425.7 1073.3 418.3 1150 413.5C1226.7 408.7 1303.3 406.3 1341.7 405.2L1380 404L1380 323L1341.7 323C1303.3 323 1226.7 323 1150 326.7C1073.3 330.3 996.7 337.7 920 337.7C843.3 337.7 766.7 330.3 690 332.7C613.3 335 536.7 347 460 351.8C383.3 356.7 306.7 354.3 230 350.7C153.3 347 76.7 342 38.3 339.5L0 337Z" fill="#3d6db4"></path><path d="M0 527L38.3 528.2C76.7 529.3 153.3 531.7 230 534C306.7 536.3 383.3 538.7 460 536.2C536.7 533.7 613.3 526.3 690 524C766.7 521.7 843.3 524.3 920 523.2C996.7 522 1073.3 517 1150 513.3C1226.7 509.7 1303.3 507.3 1341.7 506.2L1380 505L1380 402L1341.7 403.2C1303.3 404.3 1226.7 406.7 1150 411.5C1073.3 416.3 996.7 423.7 920 423.7C843.3 423.7 766.7 416.3 690 418.7C613.3 421 536.7 433 460 437.8C383.3 442.7 306.7 440.3 230 435.7C153.3 431 76.7 424 38.3 420.5L0 417Z" fill="#5a81bf"></path><path d="M0 721L38.3 721C76.7 721 153.3 721 230 721C306.7 721 383.3 721 460 721C536.7 721 613.3 721 690 721C766.7 721 843.3 721 920 721C996.7 721 1073.3 721 1150 721C1226.7 721 1303.3 721 1341.7 721L1380 721L1380 503L1341.7 504.2C1303.3 505.3 1226.7 507.7 1150 511.3C1073.3 515 996.7 520 920 521.2C843.3 522.3 766.7 519.7 690 522C613.3 524.3 536.7 531.7 460 534.2C383.3 536.7 306.7 534.3 230 532C153.3 529.7 76.7 527.3 38.3 526.2L0 525Z" fill="#7595ca"></path></svg>