<svg width="978" height="408" viewBox="0 0 978 408" fill="none" xmlns="http://www.w3.org/2000/svg">
<g filter="url(#filter0_d_300_15)">
<path fill-rule="evenodd" clip-rule="evenodd" d="M970 108.438C970 92.3185 950.12 81.0944 934 81.0944V81.0944C903.072 81.0944 878 60.3804 878 34.8284V34.8284C878 25.5811 871.851 15 862.604 15H25C11.1929 15 0 26.1929 0 40V375C0 388.807 11.1929 400 25 400H945C958.807 400 970 388.807 970 375V108.438Z" fill="url(#paint0_linear_300_15)"/>
</g>
<mask id="mask0_300_15" style="mask-type:alpha" maskUnits="userSpaceOnUse" x="348" y="15" width="622" height="385">
<path fill-rule="evenodd" clip-rule="evenodd" d="M970 103.182C970 90.1632 956.018 81.0944 943 81.0944C912.072 81.0944 887 60.3804 887 34.8283C887 25.5811 880.851 15 871.604 15H373C359.193 15 348 26.1929 348 40V375C348 388.807 359.193 400 373 400H945C958.807 400 970 388.807 970 375V103.182Z" fill="url(#paint1_linear_300_15)"/>
</mask>
<g mask="url(#mask0_300_15)">
<path fill-rule="evenodd" clip-rule="evenodd" d="M814.875 -97.6315L816.602 -98.0288L818.306 -98.4673L819.989 -98.9455L821.655 -99.4615L823.307 -100.013L824.947 -100.596L826.579 -101.208L828.207 -101.845L829.832 -102.502L831.457 -103.174L833.086 -103.857L834.72 -104.545L836.361 -105.233L838.011 -105.915L839.672 -106.586L841.345 -107.24L843.03 -107.873L844.728 -108.48L846.438 -109.056L848.162 -109.599L849.898 -110.104L851.646 -110.569L853.405 -110.99L855.174 -111.365L856.953 -111.693L858.74 -111.972L860.533 -112.202L862.332 -112.382L864.135 -112.512L865.941 -112.592L867.748 -112.622L869.556 -112.604L871.362 -112.539L873.166 -112.426L874.967 -112.267L876.763 -112.063L878.554 -111.817L880.337 -111.528L882.114 -111.199L883.882 -110.831L885.642 -110.426L887.391 -109.986L889.131 -109.513L890.86 -109.009L892.579 -108.475L894.287 -107.915L895.984 -107.33L897.669 -106.723L899.345 -106.095L901.01 -105.45L902.665 -104.79L904.31 -104.116L905.947 -103.432L907.576 -102.739L909.198 -102.039L910.813 -101.334L912.423 -100.626L914.029 -99.9161L915.632 -99.2064L917.233 -98.4977L918.832 -97.7909L920.431 -97.0866L922.03 -96.3853L923.631 -95.6869L925.234 -94.9914L926.84 -94.2982L928.449 -93.6068L930.061 -92.9158L931.677 -92.2242L933.296 -91.5303L934.918 -90.8323L936.542 -90.1284L938.167 -89.4162L939.793 -88.6934L941.418 -87.9576L943.041 -87.2063L944.66 -86.4367L946.272 -85.6464L947.877 -84.8326L949.471 -83.993L951.052 -83.1251L952.619 -82.2265L954.167 -81.2953L955.695 -80.3295L957.2 -79.3275L958.679 -78.288L960.131 -77.2098L961.552 -76.0923L962.941 -74.9351L964.295 -73.738L965.613 -72.5014L966.893 -71.2258L968.134 -69.9121L969.335 -68.5615L970.496 -67.1756L971.616 -65.7559L972.696 -64.3045L973.734 -62.8234L974.733 -61.3147L975.692 -59.7807L976.613 -58.2236L977.498 -56.6463L978.348 -55.0518L979.168 -53.4436L979.96 -51.8248L980.729 -50.199L981.478 -48.5694L982.214 -46.9392L982.94 -45.3114L983.662 -43.6889L984.385 -42.0742L985.115 -40.4696L985.857 -38.8771L986.617 -37.2984L987.401 -35.7348L988.214 -34.1873L989.061 -32.6563L989.948 -31.1421L990.878 -29.6444L991.858 -28.1625L992.889 -26.6955L993.977 -25.242L995.124 -23.8001L996.333 -22.3678L997.606 -20.9426L998.943 -19.5218L1000.35 -18.1025L1001.81 -16.6815L1003.35 -15.2554L1004.94 -13.8206L1006.6 -12.3736L1008.31 -10.9108L1010.08 -9.4283L1011.9 -7.92265L1013.76 -6.39023L1015.66 -4.82764L1017.6 -3.23162L1019.55 -1.59917L1021.53 0.0724855L1023.51 1.78577L1025.49 3.54277L1027.46 5.34523L1029.41 7.1944L1031.33 9.09116L1033.21 11.0359L1035.03 13.0284L1036.8 15.068L1038.49 17.1537L1040.09 19.2837L1041.6 21.4558L1043.01 23.6673L1044.3 25.9148L1045.46 28.1946L1046.49 30.5025L1047.38 32.8337L1048.11 35.1833L1048.69 37.5458L1049.1 39.9153L1049.34 42.2858L1049.4 44.6511L1049.29 47.0048L1048.99 49.3404L1048.51 51.6514L1047.85 53.9315L1047.01 56.1744L1045.99 58.374L1044.79 60.5246L1043.42 62.6208L1041.89 64.6576L1040.2 66.6308L1038.37 68.5364L1036.39 70.3712L1034.29 72.1327L1032.06 73.8191L1029.74 75.4293L1027.32 76.9629L1024.81 78.4202L1022.25 79.8023L1019.62 81.1109L1016.96 82.3481L1014.26 83.5166L1011.55 84.6195L1008.83 85.6603L1006.11 86.6432L1003.41 87.5729L1000.73 88.4545L998.089 89.2936L995.49 90.0961L992.946 90.8688L990.467 91.6189L988.06 92.354L985.735 93.0818L983.5 93.8107L981.36 94.5485L979.323 95.3036L977.392 96.0839L975.571 96.8971L973.863 97.7506L972.27 98.6515L970.79 99.6062L969.424 100.621L968.169 101.7L967.023 102.85L965.981 104.072L965.038 105.371L964.189 106.749L963.427 108.207L962.745 109.746L962.135 111.365L961.589 113.063L961.098 114.838L960.653 116.688L960.245 118.608L959.866 120.595L959.505 122.643L959.154 124.747L958.803 126.901L958.445 129.097L958.07 131.33L957.67 133.591L957.24 135.872L956.77 138.166L956.255 140.465L955.689 142.76L955.067 145.043L954.384 147.306L953.636 149.542L952.821 151.743L951.936 153.901L950.979 156.01L949.948 158.064L948.844 160.056L947.666 161.98L946.416 163.834L945.093 165.611L943.701 167.309L942.242 168.924L940.717 170.455L939.131 171.899L937.486 173.257L935.786 174.527L934.034 175.71L932.235 176.807L930.392 177.819L928.509 178.748L926.591 179.598L924.641 180.369L922.664 181.066L920.662 181.692L918.64 182.25L916.6 182.745L914.546 183.18L912.481 183.56L910.407 183.887L908.326 184.166L906.242 184.402L904.155 184.597L902.068 184.755L899.982 184.881L897.897 184.976L895.816 185.047L893.74 185.095L891.668 185.124L889.601 185.139L887.54 185.143L885.485 185.141L883.436 185.136L881.392 185.133L879.354 185.137L877.32 185.151L875.29 185.18L873.262 185.231L871.236 185.307L869.209 185.414L867.18 185.556L865.147 185.736L863.107 185.958L861.058 186.224L858.997 186.536L856.923 186.895L854.832 187.3L852.722 187.752L850.591 188.249L848.436 188.788L846.255 189.367L844.047 189.981L841.81 190.627L839.542 191.299L837.244 191.992L834.913 192.699L832.551 193.415L830.157 194.132L827.732 194.843L825.277 195.541L822.794 196.218L820.284 196.866L817.75 197.479L815.194 198.048L812.619 198.566L810.029 199.026L807.428 199.42L804.819 199.742L802.207 199.985L799.597 200.144L796.993 200.212L794.4 200.184L791.824 200.055L789.269 199.821L786.742 199.479L784.247 199.023L781.791 198.453L779.378 197.764L777.015 196.957L774.706 196.028L772.457 194.979L770.274 193.807L768.161 192.515L766.123 191.102L764.165 189.57L762.291 187.921L760.506 186.157L758.813 184.281L757.216 182.295L755.718 180.205L754.322 178.013L753.031 175.724L751.847 173.344L750.771 170.876L749.804 168.326L748.949 165.701L748.204 163.005L747.57 160.246L747.047 157.429L746.633 154.561L746.326 151.649L746.126 148.7L746.028 145.72L746.031 142.716L746.13 139.696L746.321 136.666L746.601 133.634L746.963 130.605L747.403 127.587L747.915 124.586L748.492 121.609L749.128 118.66L749.818 115.745L750.556 112.869L751.337 110.035L752.154 107.246L753.003 104.506L753.879 101.817L754.776 99.1822L755.69 96.6022L756.617 94.0788L757.551 91.6128L758.49 89.2049L759.43 86.8553L760.367 84.5641L761.298 82.3309L762.22 80.1551L763.131 78.0362L764.028 75.9732L764.909 73.965L765.772 72.0106L766.614 70.1086L767.434 68.2576L768.229 66.4564L768.998 64.7033L769.739 62.9969L770.45 61.3355L771.129 59.7177L771.775 58.1417L772.385 56.6059L772.957 55.1085L773.49 53.6478L773.981 52.222L774.429 50.8291L774.831 49.4673L775.184 48.1345L775.488 46.8288L775.74 45.5478L775.937 44.2895L776.078 43.0514L776.161 41.8312L776.184 40.6264L776.146 39.4344L776.044 38.2525L775.878 37.078L775.646 35.908L775.347 34.7398L774.982 33.5704L774.548 32.3967L774.047 31.2159L773.479 30.0249L772.843 28.8207L772.142 27.6003L771.375 26.3608L770.544 25.0993L769.651 23.8129L768.698 22.499L767.687 21.1548L766.621 19.7779L765.502 18.3657L764.333 16.9161L763.117 15.4269L761.859 13.8961L760.56 12.3218L759.225 10.7024L757.858 9.0364L756.461 7.3224L755.04 5.5592L753.597 3.74579L752.136 1.88128L750.662 -0.0350415L749.178 -2.0037L747.688 -4.0251L746.196 -6.0994L744.706 -8.22661L743.222 -10.4066L741.749 -12.6387L740.292 -14.9225L738.854 -17.2567L737.442 -19.64L736.061 -22.0704L734.718 -24.5455L733.419 -27.0624L732.173 -29.6172L730.988 -32.2054L729.874 -34.8218L728.839 -37.4603L727.894 -40.1144L727.046 -42.777L726.307 -45.4405L725.682 -48.0972L725.181 -50.7388L724.81 -53.3574L724.575 -55.9446L724.48 -58.4924L724.53 -60.9927L724.727 -63.438L725.073 -65.8209L725.568 -68.1343L726.212 -70.3719L727.004 -72.5277L727.941 -74.5963L729.021 -76.573L730.237 -78.4538L731.587 -80.2352L733.064 -81.9146L734.661 -83.49L736.372 -84.9602L738.19 -86.3246L740.107 -87.5835L742.115 -88.7377L744.205 -89.7886L746.37 -90.7386L748.6 -91.5904L750.887 -92.3474L753.223 -93.0133L755.6 -93.5927L758.009 -94.0904L760.443 -94.5115L762.894 -94.8616L765.354 -95.1466L767.818 -95.3726L770.278 -95.5459L772.728 -95.673L775.163 -95.7603L777.579 -95.8145L779.969 -95.8421L782.331 -95.8496L784.661 -95.8434L786.956 -95.8298L789.213 -95.8148L791.431 -95.8042L793.607 -95.8034L795.742 -95.8177L797.834 -95.8519L799.883 -95.9105L801.891 -95.9973L803.857 -96.116L805.783 -96.2696L807.67 -96.4607L809.52 -96.6912L811.336 -96.9627L813.12 -97.276L814.875 -97.6315Z" fill="url(#paint2_linear_300_15)"/>
</g>
<g filter="url(#filter1_d_300_15)">
<circle cx="928" cy="35" r="35" fill="white"/>
</g>
<g clip-path="url(#clip0_300_15)">
<path d="M926.5 47C933.956 47 940 40.9558 940 33.5C940 26.0442 933.956 20 926.5 20C919.044 20 913 26.0442 913 33.5C913 40.9558 919.044 47 926.5 47Z" stroke="black" stroke-width="3" stroke-linecap="round" stroke-linejoin="round"/>
<path d="M943 50L936 43" stroke="black" stroke-width="3" stroke-linecap="round" stroke-linejoin="round"/>
</g>
<defs>
<filter id="filter0_d_300_15" x="0" y="15" width="978" height="393" filterUnits="userSpaceOnUse" color-interpolation-filters="sRGB">
<feFlood flood-opacity="0" result="BackgroundImageFix"/>
<feColorMatrix in="SourceAlpha" type="matrix" values="0 0 0 0 0 0 0 0 0 0 0 0 0 0 0 0 0 0 127 0" result="hardAlpha"/>
<feOffset dx="4" dy="4"/>
<feGaussianBlur stdDeviation="2"/>
<feComposite in2="hardAlpha" operator="out"/>
<feColorMatrix type="matrix" values="0 0 0 0 0 0 0 0 0 0 0 0 0 0 0 0 0 0 0.25 0"/>
<feBlend mode="normal" in2="BackgroundImageFix" result="effect1_dropShadow_300_15"/>
<feBlend mode="normal" in="SourceGraphic" in2="effect1_dropShadow_300_15" result="shape"/>
</filter>
<filter id="filter1_d_300_15" x="893" y="0" width="78" height="78" filterUnits="userSpaceOnUse" color-interpolation-filters="sRGB">
<feFlood flood-opacity="0" result="BackgroundImageFix"/>
<feColorMatrix in="SourceAlpha" type="matrix" values="0 0 0 0 0 0 0 0 0 0 0 0 0 0 0 0 0 0 127 0" result="hardAlpha"/>
<feOffset dx="4" dy="4"/>
<feGaussianBlur stdDeviation="2"/>
<feComposite in2="hardAlpha" operator="out"/>
<feColorMatrix type="matrix" values="0 0 0 0 0 0 0 0 0 0 0 0 0 0 0 0 0 0 0.25 0"/>
<feBlend mode="normal" in2="BackgroundImageFix" result="effect1_dropShadow_300_15"/>
<feBlend mode="normal" in="SourceGraphic" in2="effect1_dropShadow_300_15" result="shape"/>
</filter>
<linearGradient id="paint0_linear_300_15" x1="311" y1="15" x2="311" y2="400" gradientUnits="userSpaceOnUse">
<stop stop-color="#D9D9D9"/>
<stop offset="0.238401" stop-color="#EBD6EB"/>
<stop offset="1" stop-color="#FFD3FF"/>
</linearGradient>
<linearGradient id="paint1_linear_300_15" x1="659" y1="15" x2="659" y2="400" gradientUnits="userSpaceOnUse">
<stop stop-color="#D9D9D9"/>
<stop offset="0.238401" stop-color="#EBD6EB"/>
<stop offset="1" stop-color="#FFD3FF"/>
</linearGradient>
<linearGradient id="paint2_linear_300_15" x1="895.611" y1="-71.9984" x2="648.939" y2="13.1996" gradientUnits="userSpaceOnUse">
<stop stop-color="white" stop-opacity="0"/>
<stop offset="0.909907" stop-color="#40009C"/>
</linearGradient>
<clipPath id="clip0_300_15">
<rect width="34" height="34" fill="white" transform="translate(911 18)"/>
</clipPath>
</defs>
</svg>
