<svg width="972" height="370" viewBox="0 0 972 370" fill="none" xmlns="http://www.w3.org/2000/svg">
<g filter="url(#filter0_d_300_2)">
<rect width="964" height="362" rx="25" fill="url(#paint0_linear_300_2)"/>
</g>
<mask id="mask0_300_2" style="mask-type:alpha" maskUnits="userSpaceOnUse" x="0" y="0" width="622" height="362">
<rect width="622" height="362" rx="25" fill="url(#paint1_linear_300_2)"/>
</mask>
<g mask="url(#mask0_300_2)">
<path fill-rule="evenodd" clip-rule="evenodd" d="M201.054 -9.09865L200.462 -7.22586L199.795 -5.36223L199.055 -3.5102L198.244 -1.67216L197.362 0.149587L196.41 1.95271L195.39 3.735L194.305 5.49427L193.154 7.22839L191.942 8.93532L190.668 10.6131L189.336 12.2598L187.948 13.8735L186.506 15.4526L185.013 16.9954L183.473 18.5002L181.889 19.9658L180.266 21.3907L178.608 22.7739L176.922 24.1145L175.213 25.412L173.488 26.6658L171.755 27.8762L170.021 29.0435L168.294 30.1683L166.583 31.2519L164.892 32.2955L163.229 33.3009L161.599 34.2699L160.007 35.2046L158.456 36.1072L156.951 36.9799L155.493 37.8251L154.085 38.6451L152.729 39.4423L151.424 40.2191L150.173 40.9776L148.974 41.7202L147.827 42.4488L146.732 43.1655L145.687 43.8722L144.691 44.5706L143.743 45.2624L142.839 45.949L141.98 46.6319L141.162 47.3123L140.384 47.9913L139.643 48.67L138.938 49.3495L138.266 50.0305L137.626 50.714L137.015 51.4006L136.433 52.0912L135.877 52.7864L135.345 53.4869L134.837 54.1935L134.352 54.9068L133.887 55.6275L133.443 56.3564L133.018 57.0941L132.611 57.8416L132.221 58.5995L131.849 59.3688L131.493 60.1502L131.153 60.9447L130.828 61.7532L130.518 62.5765L130.222 63.4157L129.94 64.2716L129.671 65.1451L129.415 66.0373L129.171 66.949L128.938 67.8811L128.716 68.8344L128.504 69.8097L128.301 70.8079L128.106 71.8296L127.919 72.8756L127.738 73.9466L127.563 75.0432L127.392 76.1659L127.226 77.3155L127.061 78.4924L126.899 79.6972L126.737 80.9305L126.575 82.1928L126.411 83.4847L126.245 84.8068L126.076 86.1595L125.902 87.5435L125.723 88.9593L125.538 90.4074L125.346 91.8884L125.144 93.4028L124.934 94.9509L124.712 96.533L124.478 98.1491L124.23 99.799L123.967 101.482L123.686 103.197L123.385 104.942L123.062 106.714L122.713 108.511L122.336 110.329L121.929 112.165L121.489 114.017L121.015 115.879L120.503 117.748L119.951 119.619L119.357 121.484L118.718 123.339L118.031 125.174L117.295 126.984L116.507 128.758L115.665 130.489L114.768 132.169L113.815 133.787L112.806 135.334L111.74 136.803L110.617 138.183L109.439 139.467L108.207 140.645L106.922 141.711L105.588 142.656L104.206 143.475L102.781 144.161L101.316 144.71L99.8147 145.116L98.2822 145.378L96.7233 145.492L95.1429 145.458L93.5462 145.276L91.9388 144.946L90.3258 144.471L88.7129 143.855L87.1053 143.1L85.5084 142.213L83.927 141.201L82.3661 140.07L80.8299 138.828L79.3227 137.486L77.8481 136.052L76.4092 134.537L75.0087 132.954L73.6487 131.312L72.3309 129.626L71.0561 127.906L69.8248 126.166L68.6365 124.418L67.4905 122.675L66.3852 120.95L65.3185 119.255L64.2878 117.602L63.2899 116.002L62.321 114.467L61.3769 113.008L60.4532 111.632L59.5447 110.351L58.6463 109.17L57.7524 108.097L56.8575 107.138L55.9557 106.298L55.0414 105.58L54.1087 104.987L53.1521 104.519L52.1663 104.177L51.1462 103.96L50.0869 103.864L48.9843 103.887L47.8344 104.024L46.634 104.269L45.3804 104.615L44.0716 105.054L42.7062 105.578L41.2836 106.177L39.8038 106.841L38.2676 107.561L36.6763 108.324L35.0321 109.12L33.3377 109.938L31.5962 110.767L29.8115 111.596L27.9874 112.415L26.1283 113.215L24.2386 113.988L22.3226 114.725L20.3848 115.419L18.4293 116.065L16.4603 116.657L14.4818 117.192L12.4973 117.666L10.5103 118.077L8.52397 118.421L6.54144 118.699L4.5656 118.909L2.59924 119.049L0.645082 119.121L-1.29426 119.122L-3.2162 119.054L-5.11821 118.916L-6.99783 118.709L-8.85259 118.433L-10.6801 118.087L-12.4778 117.674L-14.2435 117.193L-15.9747 116.646L-17.6691 116.032L-19.3245 115.353L-20.9388 114.611L-22.5098 113.805L-24.0357 112.938L-25.5146 112.012L-26.9448 111.026L-28.3249 109.985L-29.6535 108.888L-30.9294 107.739L-32.1517 106.54L-33.3196 105.292L-34.4324 103.998L-35.4898 102.66L-36.4916 101.281L-37.4376 99.863L-38.328 98.409L-39.163 96.9213L-39.943 95.4023L-40.6686 93.8544L-41.3402 92.2803L-41.9586 90.6821L-42.5245 89.0622L-43.0384 87.4228L-43.5012 85.7659L-43.9135 84.0937L-44.2759 82.4079L-44.5888 80.7103L-44.8527 79.0027L-45.0679 77.2865L-45.2345 75.5634L-45.3525 73.8345L-45.4216 72.1012L-45.4416 70.3648L-45.4119 68.6263L-45.3319 66.887L-45.2007 65.1479L-45.0174 63.41L-44.7809 61.6746L-44.4901 59.9426L-44.1438 58.2153L-43.7407 56.4939L-43.2798 54.7796L-42.7599 53.0738L-42.18 51.3779L-41.5393 49.6935L-40.8374 48.0221L-40.0739 46.3654L-39.2487 44.7252L-38.3625 43.1032L-37.416 41.5015L-36.4107 39.9218L-35.3486 38.366L-34.2324 36.8361L-33.0653 35.3338L-31.8511 33.8609L-30.5947 32.4188L-29.3011 31.0092L-27.9764 29.633L-26.627 28.2912L-25.2602 26.9845L-23.8834 25.7131L-22.5035 24.4769L-21.127 23.2756L-19.7593 22.1085L-18.4054 20.9746L-17.0701 19.8729L-15.7583 18.802L-14.4754 17.7602L-13.227 16.7457L-12.0187 15.7562L-10.8562 14.7893L-9.74538 13.8422L-8.69177 12.9119L-7.70089 11.9951L-6.77801 11.0881L-5.92805 10.1873L-5.15559 9.28852L-4.46474 8.38776L-3.85906 7.48071L-3.34154 6.563L-2.91452 5.63026L-2.57969 4.67812L-2.33806 3.70222L-2.18992 2.69835L-2.13484 1.66242L-2.17165 0.590532L-2.29845 -0.52097L-2.5126 -1.67544L-2.81075 -2.87593L-3.18884 -4.1251L-3.64216 -5.42523L-4.16533 -6.77811L-4.7524 -8.18511L-5.39682 -9.64704L-6.09156 -11.1642L-6.82913 -12.7364L-7.60161 -14.3629L-8.40077 -16.0421L-9.21806 -17.7723L-10.0447 -19.5509L-10.8719 -21.3747L-11.6905 -23.2402L-12.4916 -25.1431L-13.2663 -27.0787L-14.0055 -29.0418L-14.7007 -31.0266L-15.3435 -33.027L-15.9257 -35.0365L-16.4395 -37.0482L-16.8776 -39.0549L-17.2332 -41.0491L-17.4999 -43.0232L-17.6719 -44.9693L-17.7442 -46.8796L-17.7123 -48.7462L-17.5723 -50.5612L-17.3212 -52.3168L-16.9567 -54.0056L-16.4772 -55.6201L-15.8819 -57.1533L-15.1709 -58.5987L-14.3449 -59.95L-13.4055 -61.2015L-12.355 -62.3483L-11.1965 -63.3857L-9.93366 -64.3102L-8.57111 -65.1186L-7.11395 -65.8088L-5.56788 -66.3794L-3.93923 -66.8298L-2.23479 -67.1603L-0.461758 -67.3722L1.37222 -67.4678L3.25927 -67.4499L5.19123 -67.3226L7.15983 -67.0907L9.15677 -66.7598L11.1737 -66.3363L13.2026 -65.827L15.2355 -65.2397L17.2648 -64.5822L19.2835 -63.8628L21.2849 -63.0899L23.2629 -62.272L25.2119 -61.418L27.1267 -60.5366L29.003 -59.6364L30.8371 -58.7254L32.6261 -57.8111L34.368 -56.9001L36.0615 -55.9983L37.7057 -55.111L39.3005 -54.2426L40.8463 -53.3967L42.3438 -52.5765L43.7943 -51.7843L45.1991 -51.0217L46.56 -50.2901L47.879 -49.5899L49.1579 -48.9214L50.399 -48.2843L51.6045 -47.6781L52.7764 -47.1018L53.9171 -46.5542L55.0284 -46.0342L56.1126 -45.5401L57.1714 -45.0706L58.2067 -44.6243L59.2201 -44.1996L60.2132 -43.7954L61.1875 -43.4105L62.1442 -43.0438L63.0847 -42.6947L64.0099 -42.3627L64.921 -42.0474L65.819 -41.7488L66.7047 -41.4672L67.5792 -41.2032L68.4433 -40.9574L69.298 -40.7309L70.1442 -40.5249L70.9829 -40.3408L71.8151 -40.1804L72.6421 -40.0452L73.4649 -39.9372L74.285 -39.8583L75.1037 -39.8105L75.9225 -39.7958L76.7429 -39.8161L77.5669 -39.8733L78.396 -39.9692L79.2321 -40.1053L80.0773 -40.2831L80.9336 -40.5039L81.8029 -40.7685L82.6874 -41.0779L83.5892 -41.4323L84.5104 -41.8321L85.4531 -42.2771L86.4194 -42.7668L87.4112 -43.3005L88.4305 -43.8772L89.4791 -44.4956L90.5589 -45.1539L91.6713 -45.8504L92.8179 -46.583L94.0002 -47.3491L95.2192 -48.1463L96.476 -48.9718L97.7717 -49.8227L99.1069 -50.6959L100.482 -51.5882L101.898 -52.4964L103.355 -53.4172L104.852 -54.3471L106.39 -55.2827L107.969 -56.2206L109.588 -57.157L111.247 -58.0884L112.944 -59.011L114.679 -59.9209L116.45 -60.8141L118.255 -61.6863L120.093 -62.533L121.96 -63.3494L123.855 -64.1301L125.773 -64.8703L127.712 -65.5657L129.668 -66.212L131.638 -66.8055L133.618 -67.3425L135.605 -67.8201L137.596 -68.2365L139.589 -68.5902L141.582 -68.8803L143.571 -69.1065L145.555 -69.2687L147.532 -69.3671L149.5 -69.4022L151.458 -69.3745L153.405 -69.2848L155.338 -69.1337L157.257 -68.9222L159.16 -68.651L161.046 -68.3211L162.913 -67.9332L164.759 -67.4882L166.585 -66.987L168.387 -66.4302L170.166 -65.8186L171.918 -65.153L173.643 -64.434L175.338 -63.6624L177.003 -62.8386L178.635 -61.9634L180.232 -61.0374L181.793 -60.0612L183.315 -59.0354L184.797 -57.9609L186.236 -56.8381L187.63 -55.668L188.978 -54.4512L190.276 -53.1888L191.524 -51.8814L192.718 -50.5303L193.857 -49.1364L194.938 -47.701L195.96 -46.2252L196.92 -44.7104L197.816 -43.1581L198.648 -41.5698L199.412 -39.9472L200.107 -38.2919L200.733 -36.6058L201.286 -34.8909L201.766 -33.1491L202.173 -31.3825L202.504 -29.5933L202.759 -27.7838L202.937 -25.9563L203.038 -24.113L203.062 -22.2565L203.007 -20.3892L202.875 -18.5136L202.665 -16.6322L202.377 -14.7475L202.013 -12.862L201.571 -10.9782L201.054 -9.09865Z" fill="url(#paint2_linear_300_2)"/>
</g>
<g filter="url(#filter1_d_300_2)">
<circle cx="914" cy="54" r="35" fill="white"/>
</g>
<path d="M900.583 54.5H927.416" stroke="black" stroke-width="3" stroke-linecap="round" stroke-linejoin="round"/>
<path d="M914 40.7917L927.417 54.5L914 68.2084" stroke="black" stroke-width="3" stroke-linecap="round" stroke-linejoin="round"/>
<defs>
<filter id="filter0_d_300_2" x="0" y="0" width="972" height="370" filterUnits="userSpaceOnUse" color-interpolation-filters="sRGB">
<feFlood flood-opacity="0" result="BackgroundImageFix"/>
<feColorMatrix in="SourceAlpha" type="matrix" values="0 0 0 0 0 0 0 0 0 0 0 0 0 0 0 0 0 0 127 0" result="hardAlpha"/>
<feOffset dx="4" dy="4"/>
<feGaussianBlur stdDeviation="2"/>
<feComposite in2="hardAlpha" operator="out"/>
<feColorMatrix type="matrix" values="0 0 0 0 0 0 0 0 0 0 0 0 0 0 0 0 0 0 0.25 0"/>
<feBlend mode="normal" in2="BackgroundImageFix" result="effect1_dropShadow_300_2"/>
<feBlend mode="normal" in="SourceGraphic" in2="effect1_dropShadow_300_2" result="shape"/>
</filter>
<filter id="filter1_d_300_2" x="879" y="19" width="78" height="78" filterUnits="userSpaceOnUse" color-interpolation-filters="sRGB">
<feFlood flood-opacity="0" result="BackgroundImageFix"/>
<feColorMatrix in="SourceAlpha" type="matrix" values="0 0 0 0 0 0 0 0 0 0 0 0 0 0 0 0 0 0 127 0" result="hardAlpha"/>
<feOffset dx="4" dy="4"/>
<feGaussianBlur stdDeviation="2"/>
<feComposite in2="hardAlpha" operator="out"/>
<feColorMatrix type="matrix" values="0 0 0 0 0 0 0 0 0 0 0 0 0 0 0 0 0 0 0.25 0"/>
<feBlend mode="normal" in2="BackgroundImageFix" result="effect1_dropShadow_300_2"/>
<feBlend mode="normal" in="SourceGraphic" in2="effect1_dropShadow_300_2" result="shape"/>
</filter>
<linearGradient id="paint0_linear_300_2" x1="-43.3955" y1="393.5" x2="677.665" y2="-265.374" gradientUnits="userSpaceOnUse">
<stop stop-color="white"/>
<stop offset="0.987296" stop-color="#FFD2FF"/>
</linearGradient>
<linearGradient id="paint1_linear_300_2" x1="-28" y1="393.5" x2="605.5" y2="20" gradientUnits="userSpaceOnUse">
<stop stop-color="white"/>
<stop offset="0.987296" stop-color="#FFD2FF"/>
</linearGradient>
<linearGradient id="paint2_linear_300_2" x1="-130.5" y1="-67.5" x2="-4.50899" y2="193.36" gradientUnits="userSpaceOnUse">
<stop offset="0.460046" stop-color="white" stop-opacity="0"/>
<stop offset="1" stop-color="#E8C547"/>
</linearGradient>
</defs>
</svg>
