<svg width="978" height="370" viewBox="0 0 978 370" fill="none" xmlns="http://www.w3.org/2000/svg">
<g filter="url(#filter0_d_300_17)">
<rect width="970" height="362" rx="25" fill="url(#paint0_linear_300_17)"/>
</g>
<mask id="mask0_300_17" style="mask-type:alpha" maskUnits="userSpaceOnUse" x="305" y="0" width="651" height="362">
<rect x="305" width="651" height="362" rx="25" fill="url(#paint1_linear_300_17)"/>
</mask>
<g mask="url(#mask0_300_17)">
<path fill-rule="evenodd" clip-rule="evenodd" d="M1116.18 290.951V290.951L1115.89 292.449L1115.63 293.941L1115.39 295.429L1115.18 296.913L1115 298.396L1114.85 299.879L1114.72 301.364L1114.62 302.852L1114.53 304.344L1114.47 305.841L1114.43 307.345L1114.4 308.856L1114.39 310.375L1114.39 311.903L1114.39 313.441L1114.41 314.989L1114.42 316.547L1114.44 318.114L1114.45 319.692L1114.46 321.28L1114.45 322.876L1114.43 324.481L1114.4 326.094L1114.35 327.714L1114.27 329.339L1114.17 330.968L1114.04 332.601L1113.87 334.235L1113.68 335.869L1113.44 337.501L1113.17 339.129L1112.86 340.752L1112.5 342.367L1112.1 343.973L1111.66 345.567L1111.16 347.148L1110.62 348.714L1110.03 350.263L1109.39 351.793L1108.71 353.303L1107.97 354.79L1107.18 356.254L1106.35 357.692L1105.47 359.103L1104.54 360.485L1103.56 361.837L1102.54 363.158L1101.47 364.445L1100.36 365.699L1099.2 366.917L1098 368.098L1096.77 369.243L1095.49 370.349L1094.18 371.416L1092.83 372.443L1091.44 373.43L1090.02 374.376L1088.58 375.282L1087.1 376.146L1085.6 376.969L1084.07 377.751L1082.52 378.491L1080.95 379.192L1079.36 379.851L1077.75 380.471L1076.13 381.052L1074.49 381.594L1072.85 382.099L1071.19 382.567L1069.53 382.999L1067.87 383.397L1066.19 383.762L1064.52 384.094L1062.85 384.396L1061.18 384.669L1059.51 384.914L1057.84 385.134L1056.19 385.328L1054.53 385.5L1052.89 385.65L1051.25 385.781L1049.63 385.895L1048.01 385.992L1046.41 386.076L1044.82 386.148L1043.24 386.211L1041.68 386.266L1040.13 386.317L1038.59 386.366L1037.07 386.415L1035.56 386.467L1034.07 386.524L1032.6 386.588L1031.14 386.663L1029.69 386.751L1028.26 386.853L1026.84 386.972L1025.43 387.11L1024.04 387.27L1022.65 387.453L1021.28 387.66L1019.91 387.894L1018.55 388.156L1017.19 388.447L1015.84 388.768L1014.49 389.121L1013.13 389.506L1011.78 389.924L1010.43 390.375L1009.06 390.859L1007.69 391.376L1006.31 391.927L1004.93 392.511L1003.52 393.128L1002.1 393.777L1000.67 394.456L999.218 395.167L997.744 395.906L996.249 396.672L994.73 397.465L993.186 398.281L991.615 399.119L990.016 399.976L988.388 400.849L986.729 401.737L985.04 402.634L983.319 403.539L981.565 404.448L979.779 405.358L977.96 406.264L976.108 407.164L974.223 408.053L972.307 408.927L970.359 409.783L968.381 410.617L966.373 411.425L964.337 412.202L962.274 412.946L960.186 413.651L958.075 414.316L955.942 414.936L953.791 415.507L951.622 416.027L949.44 416.492L947.246 416.9L945.042 417.247L942.833 417.532L940.62 417.751L938.407 417.904L936.196 417.987L933.99 418L931.794 417.941L929.608 417.809L927.437 417.604L925.284 417.324L923.15 416.971L921.04 416.542L918.955 416.04L916.898 415.465L914.871 414.817L912.877 414.098L910.918 413.308L908.995 412.451L907.111 411.527L905.265 410.538L903.46 409.488L901.697 408.378L899.975 407.211L898.296 405.991L896.66 404.719L895.066 403.398L893.514 402.033L892.003 400.625L890.534 399.179L889.104 397.696L887.714 396.181L886.36 394.635L885.042 393.063L883.759 391.466L882.508 389.848L881.287 388.211L880.094 386.558L878.928 384.891L877.785 383.212L876.665 381.524L875.564 379.827L874.481 378.124L873.413 376.417L872.358 374.706L871.314 372.992L870.28 371.276L869.253 369.559L868.232 367.842L867.216 366.123L866.204 364.405L865.194 362.685L864.186 360.965L863.178 359.243L862.169 357.52L861.16 355.796L860.149 354.068L859.135 352.338L858.119 350.605L857.099 348.867L856.077 347.124L855.051 345.375L854.022 343.62L852.989 341.858L851.954 340.087L850.916 338.307L849.876 336.517L848.835 334.716L847.794 332.903L846.752 331.077L845.711 329.238L844.673 327.385L843.638 325.517L842.607 323.633L841.582 321.732L840.564 319.814L839.555 317.879L838.556 315.925L837.568 313.952L836.594 311.96L835.636 309.949L834.694 307.918L833.77 305.867L832.867 303.796L831.987 301.704L831.131 299.593L830.3 297.462L829.498 295.311L828.726 293.14L827.986 290.951L827.279 288.743L826.608 286.517L825.974 284.273L825.38 282.013L824.827 279.737L824.317 277.446L823.853 275.141L823.436 272.823L823.069 270.493L822.755 268.153L822.494 265.805L822.289 263.448L822.142 261.086L822.056 258.72L822.032 256.352L822.072 253.984L822.179 251.617L822.352 249.254L822.595 246.898L822.908 244.549L823.294 242.211L823.752 239.886L824.283 237.576L824.89 235.284L825.571 233.012L826.328 230.763L827.161 228.538L828.07 226.341L829.054 224.173L830.113 222.037L831.247 219.936L832.455 217.871L833.735 215.845L835.087 213.86L836.508 211.917L837.999 210.019L839.556 208.166L841.178 206.362L842.862 204.607L844.607 202.902L846.41 201.25L848.267 199.649L850.177 198.102L852.137 196.609L854.143 195.17L856.191 193.786L858.28 192.455L860.405 191.179L862.563 189.956L864.751 188.786L866.965 187.668L869.201 186.601L871.457 185.584L873.728 184.614L876.011 183.691L878.304 182.812L880.602 181.976L882.902 181.181L885.203 180.423L887.5 179.701L889.791 179.013L892.073 178.355L894.344 177.725L896.603 177.12L898.845 176.537L901.071 175.974L903.278 175.428L905.465 174.896L907.631 174.375L909.775 173.863L911.895 173.356L913.992 172.853L916.065 172.351L918.114 171.848L920.14 171.341L922.141 170.828L924.12 170.308L926.076 169.779L928.011 169.24L929.926 168.689L931.821 168.125L933.698 167.547L935.558 166.956L937.404 166.349L939.235 165.728L941.055 165.091L942.864 164.439L944.664 163.771L946.457 163.089L948.244 162.393L950.028 161.684L951.81 160.963L953.591 160.23L955.374 159.487L957.16 158.737L958.95 157.98L960.746 157.218L962.55 156.454L964.362 155.689L966.184 154.926L968.017 154.167L969.862 153.415L971.72 152.672L973.591 151.941L975.477 151.224L977.377 150.524L979.291 149.843L981.221 149.184L983.165 148.549L985.125 147.94L987.098 147.36L989.086 146.811L991.088 146.293L993.102 145.81L995.13 145.362L997.168 144.95L999.218 144.575L1001.28 144.239L1003.35 143.942L1005.42 143.685L1007.51 143.467L1009.6 143.291L1011.69 143.156L1013.79 143.062L1015.89 143.01L1018 143L1020.11 143.032L1022.21 143.105L1024.32 143.219L1026.42 143.375L1028.52 143.572L1030.62 143.809L1032.72 144.086L1034.81 144.402L1036.89 144.757L1038.97 145.149L1041.04 145.579L1043.1 146.045L1045.15 146.547L1047.2 147.084L1049.23 147.655L1051.26 148.258L1053.27 148.894L1055.28 149.561L1057.27 150.259L1059.26 150.986L1061.23 151.743L1063.19 152.527L1065.13 153.339L1067.07 154.178L1068.99 155.043L1070.9 155.934L1072.8 156.85L1074.69 157.791L1076.56 158.756L1078.41 159.746L1080.26 160.759L1082.09 161.797L1083.9 162.857L1085.7 163.942L1087.49 165.051L1089.26 166.183L1091.01 167.34L1092.74 168.522L1094.45 169.729L1096.15 170.962L1097.82 172.221L1099.47 173.508L1101.09 174.822L1102.69 176.165L1104.26 177.537L1105.81 178.939L1107.32 180.371L1108.79 181.834L1110.24 183.327L1111.64 184.853L1113.01 186.41L1114.33 188L1115.61 189.621L1116.85 191.275L1118.03 192.96L1119.17 194.677L1120.26 196.424L1121.29 198.202L1122.27 200.008L1123.19 201.844L1124.06 203.707L1124.86 205.595L1125.6 207.509L1126.29 209.445L1126.91 211.403L1127.47 213.38L1127.96 215.375L1128.4 217.385L1128.77 219.409L1129.08 221.444L1129.33 223.489L1129.52 225.54L1129.65 227.595L1129.72 229.654L1129.74 231.712L1129.7 233.769L1129.61 235.822L1129.47 237.868L1129.29 239.907L1129.05 241.936L1128.78 243.953L1128.46 245.956L1128.11 247.945L1127.72 249.917L1127.3 251.87L1126.86 253.805L1126.38 255.72L1125.89 257.613L1125.38 259.484L1124.85 261.333L1124.31 263.158L1123.76 264.96L1123.21 266.739L1122.66 268.494L1122.1 270.226L1121.55 271.935L1121.01 273.621L1120.48 275.285L1119.96 276.928L1119.45 278.551L1118.96 280.155L1118.49 281.741L1118.05 283.31L1117.62 284.863L1117.22 286.402L1116.85 287.929L1116.5 289.445L1116.18 290.951" fill="url(#paint2_linear_300_17)"/>
</g>
<g filter="url(#filter1_d_300_17)">
<circle cx="901" cy="54" r="35" fill="white"/>
</g>
<path d="M887.583 54.5H914.416" stroke="black" stroke-width="3" stroke-linecap="round" stroke-linejoin="round"/>
<path d="M901 40.7917L914.417 54.5001L901 68.2084" stroke="black" stroke-width="3" stroke-linecap="round" stroke-linejoin="round"/>
<defs>
<filter id="filter0_d_300_17" x="0" y="0" width="978" height="370" filterUnits="userSpaceOnUse" color-interpolation-filters="sRGB">
<feFlood flood-opacity="0" result="BackgroundImageFix"/>
<feColorMatrix in="SourceAlpha" type="matrix" values="0 0 0 0 0 0 0 0 0 0 0 0 0 0 0 0 0 0 127 0" result="hardAlpha"/>
<feOffset dx="4" dy="4"/>
<feGaussianBlur stdDeviation="2"/>
<feComposite in2="hardAlpha" operator="out"/>
<feColorMatrix type="matrix" values="0 0 0 0 0 0 0 0 0 0 0 0 0 0 0 0 0 0 0.25 0"/>
<feBlend mode="normal" in2="BackgroundImageFix" result="effect1_dropShadow_300_17"/>
<feBlend mode="normal" in="SourceGraphic" in2="effect1_dropShadow_300_17" result="shape"/>
</filter>
<filter id="filter1_d_300_17" x="866" y="19" width="78" height="78" filterUnits="userSpaceOnUse" color-interpolation-filters="sRGB">
<feFlood flood-opacity="0" result="BackgroundImageFix"/>
<feColorMatrix in="SourceAlpha" type="matrix" values="0 0 0 0 0 0 0 0 0 0 0 0 0 0 0 0 0 0 127 0" result="hardAlpha"/>
<feOffset dx="4" dy="4"/>
<feGaussianBlur stdDeviation="2"/>
<feComposite in2="hardAlpha" operator="out"/>
<feColorMatrix type="matrix" values="0 0 0 0 0 0 0 0 0 0 0 0 0 0 0 0 0 0 0.25 0"/>
<feBlend mode="normal" in2="BackgroundImageFix" result="effect1_dropShadow_300_17"/>
<feBlend mode="normal" in="SourceGraphic" in2="effect1_dropShadow_300_17" result="shape"/>
</filter>
<linearGradient id="paint0_linear_300_17" x1="946.608" y1="430" x2="365.439" y2="-402.879" gradientUnits="userSpaceOnUse">
<stop offset="0.0406757" stop-color="#FFD1FF"/>
<stop offset="0.859006" stop-color="#817AFF"/>
</linearGradient>
<linearGradient id="paint1_linear_300_17" x1="940.301" y1="430" x2="321.565" y2="-165.105" gradientUnits="userSpaceOnUse">
<stop offset="0.0406757" stop-color="#FFD1FF"/>
<stop offset="0.859006" stop-color="#817AFF"/>
</linearGradient>
<linearGradient id="paint2_linear_300_17" x1="878.55" y1="50.5" x2="1124.64" y2="62.0416" gradientUnits="userSpaceOnUse">
<stop stop-color="#11C7E0" stop-opacity="0.34"/>
<stop offset="0.559666" stop-color="white" stop-opacity="0"/>
</linearGradient>
</defs>
</svg>
