<svg width="978" height="408" viewBox="0 0 978 408" fill="none" xmlns="http://www.w3.org/2000/svg">
<g filter="url(#filter0_d_300_9)">
<path fill-rule="evenodd" clip-rule="evenodd" d="M970 106.807C970 91.6052 952.201 81.0944 937 81.0944V81.0944C906.072 81.0944 881 60.3804 881 34.8283V34.8283C881 25.5811 874.851 15 865.604 15H25C11.1929 15 0 26.1929 0 40V375C0 388.807 11.1929 400 25 400H945C958.807 400 970 388.807 970 375V106.807Z" fill="url(#paint0_linear_300_9)"/>
</g>
<mask id="mask0_300_9" style="mask-type:alpha" maskUnits="userSpaceOnUse" x="348" y="15" width="622" height="385">
<path fill-rule="evenodd" clip-rule="evenodd" d="M970 103.182C970 90.1632 956.018 81.0944 943 81.0944V81.0944C912.072 81.0944 887 60.3804 887 34.8283V34.8283C887 25.5811 880.851 15 871.604 15H373C359.193 15 348 26.1929 348 40V375C348 388.807 359.193 400 373 400H945C958.807 400 970 388.807 970 375V103.182Z" fill="url(#paint1_linear_300_9)"/>
</mask>
<g mask="url(#mask0_300_9)">
<path fill-rule="evenodd" clip-rule="evenodd" d="M972.972 298.793L972.461 300.14L972.032 301.477L971.687 302.807L971.43 304.135L971.262 305.463L971.185 306.796L971.197 308.136L971.299 309.489L971.486 310.856L971.758 312.242L972.109 313.649L972.535 315.081L973.031 316.538L973.59 318.024L974.205 319.54L974.869 321.087L975.574 322.666L976.313 324.278L977.078 325.923L977.861 327.599L978.655 329.308L979.455 331.048L980.254 332.819L981.049 334.62L981.835 336.451L982.61 338.312L983.37 340.2L984.111 342.116L984.828 344.057L985.517 346.023L986.174 348.011L986.795 350.019L987.375 352.044L987.909 354.085L988.392 356.137L988.82 358.197L989.189 360.263L989.492 362.33L989.728 364.394L989.89 366.451L989.976 368.497L989.982 370.528L989.905 372.538L989.743 374.525L989.492 376.482L989.152 378.407L988.72 380.294L988.197 382.139L987.582 383.94L986.875 385.691L986.077 387.391L985.19 389.035L984.215 390.621L983.155 392.147L982.012 393.611L980.79 395.011L979.492 396.347L978.123 397.617L976.686 398.821L975.187 399.961L973.63 401.036L972.02 402.047L970.363 402.997L968.664 403.888L966.928 404.721L965.161 405.501L963.368 406.229L961.554 406.909L959.724 407.546L957.884 408.143L956.037 408.704L954.189 409.234L952.343 409.737L950.503 410.217L948.673 410.679L946.856 411.127L945.054 411.565L943.27 411.998L941.505 412.429L939.761 412.862L938.039 413.3L936.339 413.746L934.662 414.203L933.008 414.672L931.376 415.155L929.764 415.653L928.172 416.167L926.599 416.696L925.042 417.241L923.5 417.801L921.97 418.373L920.451 418.955L918.939 419.546L917.433 420.141L915.93 420.738L914.428 421.332L912.924 421.919L911.417 422.495L909.904 423.054L908.384 423.593L906.856 424.106L905.318 424.588L903.77 425.035L902.21 425.442L900.64 425.807L899.059 426.126L897.468 426.396L895.868 426.618L894.261 426.789L892.646 426.91L891.027 426.98L889.404 427L887.779 426.97L886.153 426.892L884.528 426.766L882.905 426.594L881.286 426.378L879.673 426.119L878.066 425.821L876.467 425.488L874.877 425.122L873.298 424.727L871.729 424.308L870.173 423.87L868.629 423.417L867.098 422.954L865.579 422.487L864.073 422.021L862.58 421.56L861.098 421.111L859.626 420.677L858.164 420.265L856.711 419.877L855.263 419.52L853.821 419.195L852.382 418.907L850.944 418.659L849.505 418.453L848.063 418.29L846.616 418.171L845.161 418.098L843.697 418.071L842.221 418.088L840.731 418.149L839.226 418.251L837.705 418.392L836.165 418.57L834.606 418.78L833.027 419.019L831.427 419.282L829.806 419.565L828.164 419.863L826.502 420.17L824.819 420.479L823.118 420.787L821.399 421.086L819.664 421.372L817.915 421.637L816.154 421.876L814.383 422.083L812.606 422.254L810.825 422.382L809.043 422.463L807.263 422.492L805.489 422.465L803.724 422.378L801.972 422.228L800.235 422.011L798.518 421.727L796.823 421.371L795.154 420.944L793.514 420.444L791.906 419.87L790.333 419.224L788.797 418.504L787.3 417.713L785.844 416.851L784.433 415.921L783.066 414.923L781.745 413.861L780.473 412.737L779.248 411.553L778.073 410.313L776.948 409.02L775.873 407.675L774.848 406.284L773.873 404.848L772.948 403.372L772.073 401.857L771.248 400.306L770.472 398.724L769.746 397.111L769.068 395.471L768.439 393.806L767.858 392.119L767.324 390.412L766.836 388.689L766.392 386.952L765.989 385.206L765.623 383.455L765.29 381.703L764.986 379.956L764.705 378.218L764.44 376.495L764.185 374.79L763.933 373.108L763.677 371.455L763.41 369.833L763.123 368.247L762.81 366.699L762.462 365.193L762.071 363.73L761.632 362.313L761.136 360.941L760.577 359.616L759.95 358.337L759.248 357.104L758.466 355.916L757.602 354.769L756.65 353.662L755.609 352.592L754.477 351.555L753.252 350.548L751.936 349.565L750.529 348.602L749.033 347.655L747.451 346.718L745.787 345.786L744.045 344.853L742.233 343.914L740.356 342.964L738.421 341.997L736.437 341.009L734.413 339.994L732.358 338.947L730.283 337.865L728.198 336.744L726.114 335.579L724.042 334.369L721.994 333.111L719.981 331.802L718.016 330.442L716.109 329.03L714.271 327.565L712.515 326.047L710.85 324.478L709.287 322.86L707.835 321.193L706.504 319.482L705.301 317.728L704.235 315.935L703.311 314.107L702.535 312.249L701.913 310.365L701.448 308.459L701.143 306.537L701 304.604L701.019 302.666L701.201 300.727L701.545 298.793L702.047 296.869L702.706 294.961L703.517 293.073L704.476 291.21L705.577 289.377L706.814 287.578L708.181 285.816L709.67 284.096L711.274 282.421L712.985 280.792L714.793 279.214L716.692 277.687L718.673 276.214L720.726 274.796L722.845 273.434L725.02 272.128L727.244 270.879L729.508 269.686L731.806 268.55L734.131 267.47L736.475 266.444L738.832 265.473L741.196 264.555L743.561 263.687L745.921 262.869L748.27 262.099L750.605 261.375L752.921 260.696L755.216 260.059L757.486 259.462L759.73 258.905L761.943 258.385L764.125 257.9L766.273 257.448L768.385 257.028L770.458 256.636L772.489 256.271L774.478 255.929L776.421 255.608L778.315 255.305L780.159 255.018L781.95 254.741L783.686 254.473L785.364 254.21L786.982 253.947L788.539 253.682L790.032 253.41L791.46 253.128L792.821 252.831L794.115 252.515L795.34 252.178L796.496 251.814L797.583 251.42L798.601 250.993L799.55 250.529L800.431 250.025L801.246 249.477L801.995 248.883L802.682 248.241L803.307 247.548L803.874 246.802L804.385 246.001L804.843 245.144L805.252 244.231L805.615 243.259L805.937 242.23L806.22 241.144L806.47 240L806.689 238.799L806.884 237.542L807.058 236.231L807.215 234.868L807.359 233.454L807.496 231.991L807.629 230.483L807.763 228.93L807.9 227.338L808.047 225.707L808.205 224.042L808.378 222.345L808.57 220.62L808.784 218.869L809.022 217.096L809.287 215.305L809.582 213.497L809.908 211.677L810.268 209.846L810.662 208.008L811.092 206.165L811.56 204.32L812.066 202.474L812.611 200.629L813.195 198.788L813.819 196.952L814.482 195.123L815.186 193.3L815.93 191.487L816.714 189.684L817.539 187.891L818.402 186.111L819.306 184.344L820.249 182.591L821.232 180.854L822.254 179.134L823.315 177.434L824.417 175.756L825.558 174.104L826.739 172.482L827.96 170.894L829.222 169.347L830.524 167.847L831.867 166.401L833.251 165.016L834.674 163.699L836.136 162.455L837.635 161.291L839.169 160.213L840.737 159.226L842.335 158.335L843.963 157.543L845.615 156.855L847.291 156.272L848.985 155.797L850.696 155.432L852.419 155.178L854.15 155.034L855.888 155L857.627 155.075L859.365 155.258L861.098 155.546L862.822 155.936L864.536 156.426L866.235 157.01L867.917 157.686L869.579 158.449L871.22 159.293L872.836 160.214L874.427 161.205L875.99 162.262L877.525 163.378L879.03 164.548L880.505 165.765L881.949 167.023L883.362 168.317L884.744 169.64L886.096 170.986L887.418 172.35L888.711 173.725L889.976 175.107L891.215 176.489L892.428 177.868L893.619 179.239L894.787 180.596L895.936 181.937L897.067 183.257L898.183 184.552L899.285 185.82L900.375 187.059L901.457 188.265L902.533 189.437L903.603 190.573L904.672 191.673L905.74 192.735L906.81 193.758L907.883 194.743L908.963 195.69L910.049 196.599L911.145 197.471L912.25 198.307L913.368 199.108L914.499 199.875L915.643 200.61L916.803 201.315L917.978 201.991L919.17 202.64L920.379 203.265L921.606 203.867L922.851 204.448L924.114 205.009L925.396 205.554L926.698 206.084L928.018 206.6L929.358 207.104L930.718 207.598L932.099 208.083L933.499 208.561L934.921 209.033L936.363 209.5L937.827 209.964L939.313 210.424L940.821 210.884L942.352 211.343L943.905 211.803L945.48 212.266L947.078 212.733L948.697 213.207L950.335 213.689L951.992 214.183L953.664 214.691L955.35 215.216L957.045 215.762L958.749 216.33L960.456 216.925L962.164 217.548L963.869 218.203L965.566 218.891L967.253 219.616L968.924 220.38L970.576 221.184L972.203 222.031L973.802 222.923L975.367 223.861L976.893 224.845L978.377 225.879L979.813 226.961L981.196 228.093L982.522 229.275L983.787 230.507L984.985 231.789L986.113 233.12L987.166 234.499L988.141 235.925L989.035 237.397L989.844 238.913L990.565 240.471L991.196 242.069L991.734 243.704L992.179 245.374L992.528 247.075L992.781 248.806L992.939 250.562L993 252.34L992.966 254.136L992.839 255.948L992.62 257.771L992.312 259.602L991.919 261.436L991.442 263.271L990.888 265.103L990.26 266.928L989.564 268.743L988.805 270.545L987.991 272.33L987.127 274.097L986.221 275.842L985.28 277.564L984.312 279.26L983.325 280.929L982.327 282.57L981.326 284.181L980.332 285.763L979.352 287.316L978.394 288.839L977.467 290.334L976.579 291.801L975.737 293.243L974.949 294.661L974.222 296.056L973.561 297.433L972.972 298.793Z" fill="url(#paint2_linear_300_9)"/>
</g>
<g filter="url(#filter1_d_300_9)">
<circle cx="929" cy="35" r="35" fill="white"/>
</g>
<g clip-path="url(#clip0_300_9)">
<path d="M927.5 47C934.956 47 941 40.9558 941 33.5C941 26.0442 934.956 20 927.5 20C920.044 20 914 26.0442 914 33.5C914 40.9558 920.044 47 927.5 47Z" stroke="black" stroke-width="3" stroke-linecap="round" stroke-linejoin="round"/>
<path d="M944 50L937 43" stroke="black" stroke-width="3" stroke-linecap="round" stroke-linejoin="round"/>
</g>
<defs>
<filter id="filter0_d_300_9" x="0" y="15" width="978" height="393" filterUnits="userSpaceOnUse" color-interpolation-filters="sRGB">
<feFlood flood-opacity="0" result="BackgroundImageFix"/>
<feColorMatrix in="SourceAlpha" type="matrix" values="0 0 0 0 0 0 0 0 0 0 0 0 0 0 0 0 0 0 127 0" result="hardAlpha"/>
<feOffset dx="4" dy="4"/>
<feGaussianBlur stdDeviation="2"/>
<feComposite in2="hardAlpha" operator="out"/>
<feColorMatrix type="matrix" values="0 0 0 0 0 0 0 0 0 0 0 0 0 0 0 0 0 0 0.25 0"/>
<feBlend mode="normal" in2="BackgroundImageFix" result="effect1_dropShadow_300_9"/>
<feBlend mode="normal" in="SourceGraphic" in2="effect1_dropShadow_300_9" result="shape"/>
</filter>
<filter id="filter1_d_300_9" x="894" y="0" width="78" height="78" filterUnits="userSpaceOnUse" color-interpolation-filters="sRGB">
<feFlood flood-opacity="0" result="BackgroundImageFix"/>
<feColorMatrix in="SourceAlpha" type="matrix" values="0 0 0 0 0 0 0 0 0 0 0 0 0 0 0 0 0 0 127 0" result="hardAlpha"/>
<feOffset dx="4" dy="4"/>
<feGaussianBlur stdDeviation="2"/>
<feComposite in2="hardAlpha" operator="out"/>
<feColorMatrix type="matrix" values="0 0 0 0 0 0 0 0 0 0 0 0 0 0 0 0 0 0 0.25 0"/>
<feBlend mode="normal" in2="BackgroundImageFix" result="effect1_dropShadow_300_9"/>
<feBlend mode="normal" in="SourceGraphic" in2="effect1_dropShadow_300_9" result="shape"/>
</filter>
<linearGradient id="paint0_linear_300_9" x1="311" y1="-3.5" x2="311" y2="400" gradientUnits="userSpaceOnUse">
<stop stop-color="white"/>
<stop offset="1" stop-color="#352CE8"/>
</linearGradient>
<linearGradient id="paint1_linear_300_9" x1="659" y1="-3.5" x2="659" y2="400" gradientUnits="userSpaceOnUse">
<stop stop-color="white"/>
<stop offset="1" stop-color="#352CE8"/>
</linearGradient>
<linearGradient id="paint2_linear_300_9" x1="794" y1="86" x2="1140.53" y2="483.335" gradientUnits="userSpaceOnUse">
<stop offset="0.219723" stop-color="white" stop-opacity="0"/>
<stop offset="0.556916" stop-color="#FC5AFF" stop-opacity="0.639911"/>
<stop offset="0.774889" stop-color="#DD0DFF"/>
</linearGradient>
<clipPath id="clip0_300_9">
<rect width="34" height="34" fill="white" transform="translate(912 18)"/>
</clipPath>
</defs>
</svg>
